HIERARCHY
ROOT hip
{
	OFFSET 0.000000 0.000000 0.000000
	CHANNELS 6 Xposition Yposition Zposition Zrotation Yrotation Xrotation 
	JOINT lhipjoint
	{
		OFFSET 0.000000 0.000000 0.000000
		CHANNELS 3 Zrotation Yrotation Xrotation
		JOINT lfemur
		{
			OFFSET 1.363060 -1.794630 0.839290
			CHANNELS 3 Zrotation Yrotation Xrotation
			JOINT ltibia
			{
				OFFSET 2.448110 -6.726130 0.000000
				CHANNELS 3 Zrotation Yrotation Xrotation
				JOINT lfoot
				{
					OFFSET 2.562200 -7.039590 0.000000
					CHANNELS 3 Zrotation Yrotation Xrotation
					JOINT ltoes
					{
						OFFSET 0.157640 -0.433110 2.322550
						CHANNELS 3 Zrotation Yrotation Xrotation
						End Site
						{
							OFFSET 0.000000 0.000000 0.000000
						}
					}
				}
			}
		}
	}
	JOINT rhipjoint
	{
		OFFSET 0.000000 0.000000 0.000000
		CHANNELS 3 Zrotation Yrotation Xrotation
		JOINT rfemur
		{
			OFFSET -1.305520 -1.794630 0.839290
			CHANNELS 3 Zrotation Yrotation Xrotation
			JOINT rtibia
			{
				OFFSET -2.542530 -6.985550 0.000000
				CHANNELS 3 Zrotation Yrotation Xrotation
				JOINT rfoot
				{
					OFFSET -2.568260 -7.056230 0.000000
					CHANNELS 3 Zrotation Yrotation Xrotation
					JOINT rtoes
					{
						OFFSET -0.164730 -0.452590 2.363150
						CHANNELS 3 Zrotation Yrotation Xrotation
						End Site
						{
							OFFSET 0.000000 0.000000 0.000000
						}
					}
				}
			}
		}
	}
	JOINT lowerback
	{
		OFFSET 0.000000 0.000000 0.000000
		CHANNELS 3 Zrotation Yrotation Xrotation
		JOINT upperback
		{
			OFFSET 0.028270 2.035590 -0.193380
			CHANNELS 3 Zrotation Yrotation Xrotation
			JOINT thorax
			{
				OFFSET 0.056720 2.048850 -0.042750
				CHANNELS 3 Zrotation Yrotation Xrotation
				JOINT lowerneck
				{
					OFFSET 0.000000 0.000000 0.000000
					CHANNELS 3 Zrotation Yrotation Xrotation
					JOINT upperneck
					{
						OFFSET -0.054170 1.746240 0.172020
						CHANNELS 3 Zrotation Yrotation Xrotation
						JOINT head
						{
							OFFSET 0.104070 1.761360 -0.123970
							CHANNELS 3 Zrotation Yrotation Xrotation
							End Site
							{
								OFFSET 0.000000 0.000000 0.000000
							}
						}
					}
				}
				JOINT lclavicle
				{
					OFFSET 0.000000 0.000000 0.000000
					CHANNELS 3 Zrotation Yrotation Xrotation
					JOINT lhumerus
					{
						OFFSET 3.362410 1.200890 -0.311210
						CHANNELS 3 Zrotation Yrotation Xrotation
						JOINT lradius
						{
							OFFSET 4.983000 -0.000000 -0.000000
							CHANNELS 3 Zrotation Yrotation Xrotation
							JOINT lwrist
							{
								OFFSET 3.483560 -0.000000 -0.000000
								CHANNELS 3 Zrotation Yrotation Xrotation
								JOINT lhand
								{
									OFFSET 0.000000 0.000000 0.000000
									CHANNELS 3 Zrotation Yrotation Xrotation
									JOINT lfingers
									{
										OFFSET 0.715260 -0.000000 -0.000000
										CHANNELS 3 Zrotation Yrotation Xrotation
										End Site
										{
											OFFSET 0.000000 0.000000 0.000000
										}
									}
								}
								JOINT lthumb
								{
									OFFSET 0.000000 0.000000 0.000000
									CHANNELS 3 Zrotation Yrotation Xrotation
									End Site
									{
										OFFSET 0.000000 0.000000 0.000000
									}
								}
							}
						}
					}
				}
				JOINT rclavicle
				{
					OFFSET 0.000000 0.000000 0.000000
					CHANNELS 3 Zrotation Yrotation Xrotation
					JOINT rhumerus
					{
						OFFSET -3.136600 1.374050 -0.404650
						CHANNELS 3 Zrotation Yrotation Xrotation
						JOINT rradius
						{
							OFFSET -5.241900 -0.000000 -0.000000
							CHANNELS 3 Zrotation Yrotation Xrotation
							JOINT rwrist
							{
								OFFSET -3.444170 -0.000000 -0.000000
								CHANNELS 3 Zrotation Yrotation Xrotation
								JOINT rhand
								{
									OFFSET 0.000000 0.000000 0.000000
									CHANNELS 3 Zrotation Yrotation Xrotation
									JOINT rfingers
									{
										OFFSET -0.622530 -0.000000 -0.000000
										CHANNELS 3 Zrotation Yrotation Xrotation
										End Site
										{
											OFFSET 0.000000 0.000000 0.000000
										}
									}
								}
								JOINT rthumb
								{
									OFFSET 0.000000 0.000000 0.000000
									CHANNELS 3 Zrotation Yrotation Xrotation
									End Site
									{
										OFFSET 0.000000 0.000000 0.000000
									}
								}
							}
						}
					}
				}
			}
		}
	}
}
MOTION
Frames: 8
Frame Time: 0.008333
-8.678227 18.473337 -1.301449 -22.147700 -84.287037 22.644642 3.975156 2.741373 -0.926120 -16.740938 -4.230721 -7.144744 11.150986 16.783676 61.738239 0.304286 7.876102 23.232861 0.328300 -3.682700 -10.185800 -7.885787 -4.608724 -1.241297 29.314163 5.215280 -15.989424 -4.646794 -10.323517 32.743854 -0.579953 12.968743 -0.203335 -0.060200 1.583500 -4.355900 6.487317 0.932616 2.138820 0.888406 0.514507 -2.016880 -2.582543 1.123940 9.824808 -0.316393 -3.438779 -13.191951 6.056250 -4.946982 20.300707 -0.847900 -1.564700 3.068000 6.303281 -5.824527 3.017912 -88.691873 -9.996468 -30.832829 -2.512912 -6.900214 -0.441088 -0.326238 -0.044766 81.214964 6.314364 -4.275238 -0.436500 -7.125000 0.000000 0.000000 -15.248600 25.951000 7.284000 -0.608423 8.627362 5.032473 86.354946 -4.307023 12.635712 -15.504638 31.974480 -3.558295 0.142630 -3.850938 1.010013 -11.832689 1.553540 -1.172900 7.125000 0.000000 0.000000 10.838800 -24.377900 5.493200 
-8.822747 18.487363 -1.311799 -22.352594 -84.224054 22.809157 3.992372 2.732555 -0.876387 -16.615447 -4.399886 -8.613106 11.178403 16.877399 62.138100 0.431558 6.633423 22.276777 0.370500 -3.909900 -10.823400 -7.888807 -4.578102 -1.339289 29.478434 4.878729 -15.234216 -4.603904 -10.231924 32.492464 -0.592757 13.111431 -0.615477 -0.063200 1.621900 -4.461900 6.438141 1.003127 2.225897 0.869889 0.633253 -2.019854 -2.475005 1.160478 9.761289 -0.402046 -3.516092 -13.051078 5.900847 -4.998594 20.299496 -0.876400 -1.601600 3.019000 6.338339 -5.822998 2.978796 -89.031603 -9.604046 -33.351003 -2.575290 -6.017007 -0.416620 -0.393025 -0.117320 84.325692 6.440776 -4.576165 -0.464900 -7.125000 0.000000 0.000000 -15.189200 25.729600 7.335400 -0.568600 8.610649 5.080457 85.998193 -3.858463 13.445469 -16.210325 32.504162 -3.702387 0.184631 -3.868114 0.554371 -11.788029 1.605852 -1.184600 7.125000 0.000000 0.000000 10.858000 -24.307600 5.521300 
-8.967943 18.499551 -1.321182 -22.941420 -84.171345 23.333591 4.011901 2.721300 -0.831035 -16.471180 -4.490817 -10.006738 11.141315 16.935678 62.326346 0.581339 5.295910 21.285549 0.444300 -4.276800 -11.856600 -7.882246 -4.552458 -1.432412 29.655588 4.522103 -14.474101 -4.560967 -10.144835 32.251136 -0.606167 13.271091 -0.987705 -0.060100 1.581500 -4.350400 6.450513 1.088406 2.334032 0.846818 0.769122 -2.023674 -2.439448 1.209812 9.685663 -0.433353 -3.612196 -12.919406 5.723363 -5.071154 20.317820 -0.924600 -1.646900 2.983400 6.366625 -5.825746 2.943690 -89.336321 -9.179924 -35.842524 -2.552269 -5.219953 -0.399003 -0.452593 -0.198906 87.314087 6.791526 -4.839123 -0.507100 -7.125000 0.000000 0.000000 -14.980300 25.530000 7.300100 -0.536065 8.607682 5.122454 85.702431 -3.417769 14.164445 -16.895831 33.030673 -3.846698 0.223012 -3.884678 0.171615 -11.714799 1.674649 -1.196700 7.125000 0.000000 0.000000 10.896200 -24.222400 5.563400 
-9.111592 18.509128 -1.329888 -22.823943 -84.147968 23.166933 4.019091 2.718651 -0.782422 -16.409540 -4.565061 -11.376806 11.040934 16.965175 62.291198 0.740308 3.965571 20.314260 0.552400 -4.761100 -13.228400 -7.880860 -4.518659 -1.533242 29.744784 4.135761 -13.759901 -4.524278 -10.067848 32.042612 -0.618816 13.493850 -1.356783 -0.057900 1.552900 -4.271500 6.354593 1.166475 2.424980 0.822932 0.900384 -2.022916 -2.350395 1.252440 9.655775 -0.526677 -3.696216 -12.847406 5.576848 -5.134315 20.335513 -0.945400 -1.688500 2.965900 6.387515 -5.822833 2.915523 -89.651908 -8.741166 -37.880249 -2.513544 -4.601708 -0.387498 -0.503740 -0.267083 89.802785 7.155346 -5.038565 -0.547300 -7.125000 0.000000 0.000000 -14.759500 25.376400 7.240100 -0.504493 8.585865 5.160861 85.361936 -2.906003 14.869434 -17.523762 33.496788 -3.984220 0.246816 -3.891765 -0.163177 -11.689732 1.805051 -1.223600 7.125000 0.000000 0.000000 10.904000 -24.083500 5.603200 
-9.255144 18.515899 -1.338207 -23.044731 -84.133609 23.351354 4.027403 2.714944 -0.736906 -16.332351 -4.608876 -12.709986 10.882198 16.962989 62.042819 0.901234 2.655851 19.328756 0.660800 -5.198900 -14.476700 -7.873734 -4.487439 -1.623995 29.851339 3.783127 -13.075198 -4.490846 -9.999277 31.858876 -0.632428 13.702408 -1.697882 -0.055900 1.526100 -4.197700 6.272227 1.245249 2.509738 0.803599 1.033718 -2.026217 -2.219394 1.290832 9.606506 -0.633939 -3.793217 -12.767222 5.396342 -5.200416 20.351160 -0.979700 -1.732500 2.947200 6.417064 -5.825633 2.891939 -89.996263 -8.235657 -39.392152 -2.505057 -4.139262 -0.379441 -0.537864 -0.314135 91.685975 7.420461 -5.114228 -0.570000 -7.125000 0.000000 0.000000 -14.606100 25.324200 7.178400 -0.470310 8.573002 5.197647 84.962187 -2.364420 15.551772 -18.113973 33.906900 -4.109373 0.275912 -3.887107 -0.494517 -11.588706 1.892858 -1.231100 7.125000 0.000000 0.000000 10.967900 -24.001800 5.658300 
-9.399180 18.521606 -1.345849 -22.914052 -84.149876 23.167404 4.028836 2.714498 -0.693473 -16.304770 -4.590915 -13.976520 10.675537 16.930052 61.595747 1.040176 1.485814 18.324703 0.742600 -5.505000 -15.354600 -7.866511 -4.452944 -1.719862 29.895773 3.399635 -12.405044 -4.463527 -9.943075 31.711904 -0.645865 13.972125 -2.047772 -0.051300 1.462200 -4.021500 6.167289 1.338329 2.601864 0.773273 1.186034 -2.022409 -2.182326 1.343653 9.613630 -0.675670 -3.908819 -12.780660 5.219021 -5.294194 20.389876 -1.027100 -1.786900 2.964400 6.419584 -5.813636 2.879051 -90.229885 -7.713438 -40.213680 -2.524364 -3.886672 -0.373776 -0.558187 -0.338871 92.914655 7.559871 -5.145964 -0.580800 -7.125000 0.000000 0.000000 -14.528600 25.303900 7.144900 -0.438242 8.554462 5.225836 84.626541 -1.769234 16.242309 -18.706511 34.345278 -4.245006 0.312744 -3.895147 -0.872735 -11.515156 1.900782 -1.228000 7.125000 0.000000 0.000000 11.012800 -23.985800 5.686400 
-9.541862 18.524412 -1.353104 -22.354727 -84.183885 22.587829 4.023082 2.719125 -0.645982 -16.341980 -4.597954 -15.254795 10.433572 16.877296 61.000245 1.168411 0.432452 17.370839 0.810600 -5.745600 -16.048100 -7.864047 -4.412615 -1.814768 29.889448 3.039659 -11.778720 -4.439773 -9.890425 31.577665 -0.660492 14.214818 -2.416259 -0.049600 1.437700 -3.954000 5.994799 1.421961 2.661268 0.745319 1.329640 -2.020820 -2.078697 1.386544 9.621153 -0.787163 -4.016572 -12.779637 5.049461 -5.378549 20.437280 -1.052700 -1.839000 2.981100 6.422574 -5.812847 2.879569 -90.516728 -7.086058 -40.089301 -2.627898 -3.918506 -0.372557 -0.558096 -0.334910 93.057008 7.524545 -5.148392 -0.578600 -7.125000 0.000000 0.000000 -14.552400 25.301000 7.158400 -0.407094 8.532189 5.253802 84.217364 -1.132587 16.936117 -19.256525 34.725874 -4.368548 0.346603 -3.890216 -1.273714 -11.407775 1.923623 -1.221100 7.125000 0.000000 0.000000 11.085700 -23.969000 5.729800 
-9.684640 18.527120 -1.359392 -21.731269 -84.209194 21.931256 4.013891 2.725951 -0.596648 -16.389726 -4.575643 -16.494635 10.163739 16.801039 60.268396 1.266460 -0.432183 16.411214 0.842300 -5.854000 -16.361300 -7.856966 -4.374230 -1.913089 29.861387 2.580611 -11.180418 -4.414332 -9.838991 31.445041 -0.671757 14.522531 -2.711929 -0.049500 1.435400 -3.947700 5.823328 1.495428 2.743503 0.716301 1.460156 -2.020253 -2.007072 1.425283 9.617889 -0.883680 -4.103020 -12.790842 4.895115 -5.440204 20.477788 -1.075500 -1.878800 3.002900 6.417118 -5.818228 2.884119 -90.771971 -6.453665 -39.647953 -2.735195 -4.067065 -0.373139 -0.551895 -0.318971 92.743077 7.414451 -5.156160 -0.572500 -7.125000 0.000000 0.000000 -14.617800 25.290700 7.196300 -0.378007 8.515754 5.278856 83.845130 -0.507390 17.591153 -19.827929 35.127200 -4.502831 0.380274 -3.888788 -1.683676 -11.305027 1.947560 -1.215600 7.125000 0.000000 0.000000 11.155400 -23.947000 5.773000 
